<svg width="18" height="18" viewBox="0 0 18 18" fill="none" xmlns="http://www.w3.org/2000/svg">
<path d="M11.6246 3.78732C12.453 3.78732 13.1251 3.05111 13.1251 2.14195C13.1251 1.23278 12.4537 0.496582 11.6246 0.496582C10.7963 0.496582 10.1242 1.23278 10.1242 2.14195C10.1263 3.04958 10.797 3.78503 11.6246 3.78732ZM3.74973 9.13439C1.67841 9.13515 0 10.9764 0 13.2478C0.000697884 15.5184 1.67911 17.3589 3.74973 17.3597C5.82105 17.3605 7.50016 15.5192 7.50085 13.2478C7.50155 10.9764 5.82244 9.13515 3.75112 9.13439C3.75043 9.13439 3.74973 9.13439 3.74973 9.13439ZM3.74973 16.1261C2.30023 16.1261 1.12429 14.8373 1.12429 13.247C1.12429 11.6575 2.29953 10.368 3.74973 10.368C5.19993 10.368 6.37517 11.6568 6.37517 13.247C6.37447 14.8365 5.19923 16.1261 3.74973 16.1261ZM8.09964 7.90074L9.89948 5.92707L10.4997 6.58522C11.506 7.71019 12.8878 8.33389 14.3248 8.31246V6.6671C13.3093 6.67628 12.3337 6.23089 11.6246 5.43346L10.1996 3.87073C9.86598 3.55314 9.43888 3.37866 8.99712 3.37713C8.59444 3.34728 8.20292 3.53018 7.94471 3.87073L5.84478 6.17349C5.56004 6.47654 5.39743 6.89209 5.39464 7.32754C5.36742 7.76911 5.53422 8.19844 5.84478 8.4816L8.2448 10.7844V14.897H9.74944V9.79253L8.09964 7.90074ZM14.2494 9.13439C12.1781 9.13439 10.499 10.9757 10.499 13.247C10.499 15.5184 12.1781 17.3597 14.2494 17.3597C16.3207 17.3597 17.9998 15.5184 17.9998 13.247C18.0201 10.9979 16.3737 9.15658 14.3227 9.13439C14.2982 9.13439 14.2738 9.13439 14.2494 9.13439ZM14.2494 16.1261C12.7999 16.1261 11.6239 14.8373 11.6239 13.247C11.6239 11.6575 12.7992 10.368 14.2494 10.368C15.6996 10.368 16.8748 11.6568 16.8748 13.247C16.8574 14.8289 15.6919 16.1062 14.2494 16.1261Z" fill="currentcolor"/>
</svg>
