<svg width="13" height="15" viewBox="0 0 13 15" fill="none" xmlns="http://www.w3.org/2000/svg">
<path d="M11.498 1.47227C11.348 0.960933 10.9352 0.618314 10.4725 0.620617H2.52757C2.06537 0.620617 1.65348 0.962085 1.50204 1.47227L0 6.52226V13.2669C0.00098657 13.7322 0.32359 14.1088 0.722164 14.1099H1.44433C1.8429 14.1088 2.1655 13.7322 2.16649 13.2669V12.4251H10.8335V13.2681C10.8345 13.7333 11.1571 14.1099 11.5557 14.1111H12.2778C12.6764 14.1099 12.999 13.7333 13 13.2681V6.52226L11.498 1.47227ZM2.52757 9.89432C1.92823 9.89432 1.44237 9.32712 1.44237 8.62749C1.44237 7.92786 1.92823 7.36067 2.52757 7.36067C3.12691 7.36067 3.61281 7.92786 3.61281 8.62749C3.61478 9.32482 3.13187 9.89202 2.5345 9.89432C2.53252 9.89432 2.53004 9.89432 2.52757 9.89432ZM10.4719 9.89432C9.87257 9.89432 9.38671 9.32712 9.38671 8.62749C9.38671 7.92786 9.87257 7.36067 10.4719 7.36067C11.0713 7.36067 11.5572 7.92786 11.5572 8.62749C11.5592 9.32482 11.0762 9.89202 10.4788 9.89432C10.4769 9.89432 10.4749 9.89432 10.4719 9.89432ZM1.44484 5.67868L2.52757 1.88744H10.4725L11.5577 5.68156L1.44484 5.67868Z" fill="currentcolor"/>
</svg>
