<svg width="9" height="18" viewBox="0 0 9 18" fill="none" xmlns="http://www.w3.org/2000/svg">
<path d="M5.14954 3.48198C5.50381 3.48198 5.83689 3.32711 6.08758 3.04519C6.33886 2.76392 6.47657 2.38868 6.47657 1.98961C6.47657 1.5912 6.33886 1.21596 6.08817 0.933375C5.83689 0.652108 5.50381 0.496582 5.14954 0.496582C4.41805 0.496582 3.8231 1.16566 3.82251 1.98829V1.98961C3.82486 2.80958 4.41923 3.47867 5.14954 3.48198Z" fill="currentcolor"/>
<path d="M8.38942 7.87693C7.35898 7.6989 6.46155 7.01923 5.92426 6.00667L5.23632 4.76777C4.99328 4.31377 4.57016 4.03252 4.09349 4.01465C4.00698 4.01531 3.92636 4.03317 3.83456 4.05369C3.76394 4.06957 3.69038 4.08612 3.60858 4.09142L3.56091 4.09406L0.383691 5.60562C0.150652 5.71614 0 5.97093 0 6.2555V8.638C0 9.02714 0.281294 9.34414 0.627322 9.34414C0.978646 9.34414 1.26406 9.02714 1.26406 8.638V7.28792C1.26406 6.93585 1.45238 6.62612 1.74426 6.49839L2.54637 6.14234C2.56814 6.13241 2.59345 6.13903 2.61169 6.16087C2.6317 6.18404 2.63993 6.2211 2.63758 6.23499L0.855654 16.3149C0.819168 16.5227 0.866835 16.7358 0.986297 16.8999C1.10576 17.0641 1.28289 17.158 1.4718 17.158H1.53771C1.83371 17.158 2.08558 16.931 2.15032 16.6068L3.27962 10.9636C3.28491 10.9378 3.30139 10.9179 3.32258 10.9106C3.34435 10.9034 3.36848 10.91 3.38437 10.9272L4.62901 12.2607C4.77731 12.4202 4.86264 12.6439 4.86264 12.8749V16.4539C4.86264 16.843 5.14452 17.1594 5.49055 17.1594C5.84129 17.1594 6.12729 16.843 6.12729 16.4539V11.7002C6.12729 11.5082 6.05608 11.3223 5.9325 11.1892L4.68786 9.85439C4.67197 9.83718 4.66491 9.8127 4.66902 9.78887L5.08626 7.4441C5.09097 7.41829 5.10862 7.39712 5.13334 7.38984C5.15452 7.38322 5.17865 7.39182 5.19454 7.41234C5.96604 8.40305 7.02708 9.06287 8.18286 9.27068C8.36235 9.30178 8.54478 9.24421 8.68366 9.11185L8.68483 9.11053C8.82548 8.97486 8.9061 8.77763 8.9061 8.57049C8.90728 8.22503 8.68425 7.92723 8.38942 7.87693Z" fill="currentcolor"/>
</svg>
