<svg width="17" height="17" viewBox="0 0 17 17" fill="none" xmlns="http://www.w3.org/2000/svg">
<path fill-rule="evenodd" clip-rule="evenodd" d="M3.64913 0.78125C3.64913 0.427442 3.93595 0.140625 4.28976 0.140625C4.64357 0.140625 4.93038 0.427443 4.93038 0.78125V1.54381H12.0696V0.78125C12.0696 0.427443 12.3564 0.140625 12.7102 0.140625C13.064 0.140625 13.3508 0.427443 13.3508 0.78125V1.54381H13.8438C15.5092 1.54381 16.8594 2.89395 16.8594 4.55944V13.1418C16.8594 14.8073 15.5092 16.1574 13.8438 16.1574H3.15625C1.49077 16.1574 0.140625 14.8073 0.140625 13.1418V4.55944C0.140625 2.89395 1.49077 1.54381 3.15625 1.54381H3.64913V0.78125ZM3.15632 2.82465C2.19846 2.82465 1.42195 3.60115 1.42195 4.55902V5.05247H15.5782V4.55902C15.5782 3.60115 14.8017 2.82465 13.8438 2.82465H13.3789L13.3365 3.02205C13.2743 3.31074 13.0172 3.52699 12.7102 3.52699C12.4031 3.52699 12.146 3.31074 12.0839 3.02205L12.0414 2.82465H4.95853L4.91604 3.02205C4.85391 3.31074 4.5968 3.52699 4.28976 3.52699C3.98272 3.52699 3.72561 3.31074 3.66348 3.02205L3.62099 2.82465H3.15632ZM15.5782 6.33372H1.42195V13.1414C1.42195 14.0993 2.19846 14.8758 3.15632 14.8758H13.8438C14.8017 14.8758 15.5782 14.0993 15.5782 13.1414V6.33372Z" fill="currentcolor"/>
</svg>
